<svg xmlns="http://www.w3.org/2000/svg" version="1.1" xmlns:xlink="http://www.w3.org/1999/xlink" xmlns:svgjs="http://svgjs.dev/svgjs" viewBox="0 0 800 800"><defs><filter id="uuunion-blur" x="-100%" y="-100%" width="400%" height="400%" color-interpolation-filters="sRGB">
        <feGaussianBlur in="SourceGraphic" stdDeviation="0 0" result="blur"></feGaussianBlur>
        <feDropShadow stdDeviation="12.307692307692308" in="blur" dx="10" dy="10" flood-color="hsl(316, 73%, 52%)" flood-opacity="0.25" x="0%" y="0%" width="100%" height="100%"></feDropShadow>
      </filter><filter id="uuunion-blur2" x="-100%" y="-100%" width="400%" height="400%" color-interpolation-filters="sRGB">
        <feGaussianBlur in="SourceGraphic" stdDeviation="0 0" result="blur"></feGaussianBlur>
        <feDropShadow stdDeviation="12.307692307692308" in="blur" dx="-10" dy="-10" flood-color="hsl(316, 73%, 52%)" flood-opacity="0.25" x="0%" y="0%" width="100%" height="100%"></feDropShadow>
      </filter><linearGradient gradientTransform="rotate(156, 0.5, 0.5)" x1="50%" y1="0%" x2="50%" y2="100%" id="uuunion-grad"><stop stop-color="hsl(37, 99%, 67%)" offset="10%"></stop><stop stop-color="hsl(316, 73%, 52%)" offset="90%"></stop></linearGradient><linearGradient gradientTransform="rotate(157, 0.5, 0.5)" x1="50%" y1="0%" x2="50%" y2="100%" id="uuunion-grad2"><stop stop-color="hsl(37, 99%, 67%)" offset="25%"></stop><stop stop-color="hsl(316, 73%, 52%)" offset="100%"></stop></linearGradient><linearGradient gradientTransform="rotate(140, 0.5, 0.5)" x1="50%" y1="0%" x2="50%" y2="100%" id="uuunion-grad3"><stop stop-color="hsl(37, 99%, 67%)" offset="0%"></stop><stop stop-color="hsl(316, 73%, 52%)" offset="75%"></stop></linearGradient></defs><path d="M-79.08 -88.44Q-64.41 -86 -49.74 -81.87 -35.06 -77.22 -20.39 -73.35 -5.72 -71.33 8.95 -71.75 23.62 -74.48 38.29 -78.75 52.97 -83.37 67.64 -87.05 82.31 -88.75 96.99 -87.99 111.66 -85 126.33 -80.61 141 -76.04 155.68 -72.58 170.35 -71.2 185.02 -72.28 199.7 -75.53 214.37 -80.02 229.04 -84.51 243.72 -87.73 258.39 -88.79 273.06 -87.38 287.74 -83.9 302.41 -79.33 317.08 -74.94 331.76 -71.97 346.43 -71.25 361.1 -72.98 375.77 -76.67 390.45 -81.3 405.12 -85.56 419.79 -88.26 434.47 -88.65 449.14 -86.61 463.81 -82.72 478.49 -78.06 493.16 -73.95 507.83 -71.53 522.51 -71.49 537.18 -73.82 551.85 -77.89 566.53 -82.54 581.2 -86.49 595.87 -88.61 610.54 -88.32 625.22 -85.7 639.89 -81.48 654.56 -76.84 669.24 -73.09 683.91 -71.27 698.58 -71.9 713.26 -74.8 727.93 -79.15 742.6 -83.74 757.28 -87.28 771.95 -88.78 786.62 -87.82 801.3 -84.67 815.97 -80.2 830.64 -75.68 845.31 -72.37 859.99 -71.2 856.31 -55.97 856.47 -40.75 860.45 -25.52 867.59 -10.3 876.75 4.92 886.43 20.14 895.07 35.37 901.26 50.59 904.01 65.82 902.86 81.04 898.01 96.27 890.24 111.49 880.8 126.72 871.24 141.94 863.09 157.17 857.69 172.39 855.9 187.62 858.02 202.84 863.7 218.07 872.02 233.29 881.64 248.52 890.99 263.74 898.55 278.97 903.11 294.19 903.92 309.42 900.86 324.64 894.41 339.87 885.62 355.09 875.92 370.32 866.88 385.54 859.97 400.77 856.31 415.99 856.48 431.22 860.47 446.44 867.62 461.67 876.78 476.89 886.46 492.12 895.09 507.34 901.28 522.57 904.01 537.79 902.85 553.02 897.99 568.24 890.21 583.47 880.77 598.69 871.21 613.92 863.07 629.14 857.68 644.37 855.9 659.59 858.03 674.82 863.72 690.04 872.05 705.27 881.67 720.49 891.01 735.72 898.57 750.94 903.12 766.17 903.92 781.39 900.84 796.62 894.38 811.84 885.59 827.07 875.89 842.29 866.86 857.52 859.96 872.74 856.3 887.97 856.49 903.19 841.87 900.09 827.25 891.36 812.64 879.45 798.02 867.68 783.41 859.37 768.79 856.84 754.17 860.79 739.56 870.13 724.94 882.23 710.33 893.7 695.71 901.34 681.09 902.99 666.48 898.2 651.86 888.31 637.25 876.09 622.63 864.96 608.02 858.05 593.4 857.28 578.78 862.88 564.17 873.27 549.55 885.55 534.94 896.27 520.32 902.43 505.7 902.3 491.09 895.93 476.47 885.09 461.86 872.82 447.24 862.56 432.62 857.19 418.01 858.21 403.39 865.33 388.78 876.56 374.16 888.75 359.55 898.49 344.93 903.05 330.31 901.15 315.7 893.32 301.08 881.75 286.47 869.7 271.85 860.53 257.23 856.81 242.62 859.59 228 868.09 213.39 879.92 198.77 891.77 184.15 900.33 169.54 903.18 154.92 899.54 140.31 890.42 125.69 878.38 111.07 866.8 96.46 858.91 81.84 856.92 67.23 861.41 52.61 871.1 38 883.28 23.38 894.55 8.76 901.73 -5.84 902.83 -20.46 897.52 -35.07 887.31 -49.69 875.05 -64.31 864.17 -78.92 857.73 -78.91 842.94 -79.08 828.16 -79.4 813.38 -79.81 798.59 -80.25 783.81 -80.65 769.02 -80.95 754.24 -81.09 739.45 -81.05 724.67 -80.84 709.89 -80.5 695.1 -80.07 680.32 -79.63 665.53 -79.25 650.75 -78.99 635.97 -78.9 621.18 -78.98 606.4 -79.22 591.61 -79.59 576.83 -80.03 562.05 -80.46 547.26 -80.82 532.48 -81.04 517.69 -81.09 502.91 -80.97 488.13 -80.68 473.34 -80.29 458.56 -79.85 443.77 -79.43 428.99 -79.1 414.21 -78.92 399.42 -78.91 384.64 -79.08 369.85 -79.4 355.07 -79.81 340.29 -80.25 325.5 -80.65 310.72 -80.95 295.93 -81.09 281.15 -81.05 266.37 -80.84 251.58 -80.5 236.8 -80.07 222.01 -79.63 207.23 -79.25 192.45 -78.99 177.66 -78.9 162.88 -78.98 148.09 -79.22 133.31 -79.6 118.53 -80.03 103.74 -80.46 88.96 -80.82 74.17 -81.04 59.39 -81.09 44.6 -80.97 29.82 -80.68 15.04 -80.29 0.25 -79.85 -14.52 -79.43 -29.31 -79.1 -44.09 -78.92 -58.87 -78.91 -73.66 -79.08 -88.44" fill="url(#uuunion-grad)"></path><path d="M-79.08 -88.44Q-78.91 -73.66 -78.92 -58.87 -79.1 -44.09 -79.43 -29.31 -79.85 -14.52 -80.29 0.25 -80.68 15.04 -80.97 29.82 -81.09 44.6 -81.04 59.39 -80.82 74.17 -80.46 88.96 -80.03 103.74 -79.6 118.53 -79.22 133.31 -78.98 148.09 -78.9 162.88 -78.99 177.66 -79.25 192.45 -79.63 207.23 -80.07 222.01 -80.5 236.8 -80.84 251.58 -81.05 266.37 -81.09 281.15 -80.95 295.93 -80.65 310.72 -80.25 325.5 -79.81 340.29 -79.4 355.07 -79.08 369.85 -78.91 384.64 -69.17 387.18 -59.43 391.33 -49.69 396.58 -39.95 402.26 -30.2 407.66 -20.46 412.08 -2.2 415.72 0.95 415.95 13.16 407.58 25.44 396.54 37.82 383.81 50.32 370.65 62.94 358.42 75.7 348.27 88.59 340.92 101.61 336.55 114.74 334.77 127.96 334.68 141.26 335.05 154.59 334.61 167.92 332.22 181.22 327.18 194.45 319.27 207.57 308.86 220.55 296.78 233.34 284.19 245.93 272.33 258.29 262.26 270.41 254.71 282.28 249.9 293.91 247.52 305.3 246.77 316.48 246.57 327.47 245.74 338.31 243.24 349.06 238.37 359.76 230.88 370.46 221.06 381.23 209.63 392.12 197.62 403.19 186.15 414.5 176.23 426.1 168.54 438.03 163.34 450.32 160.38 463 158.99 476.07 158.21 489.55 156.96 503.41 154.29 517.63 149.52 532.18 142.4 546.99 133.14 562.01 122.34 577.18 110.92 592.41 99.89 607.61 90.16 622.72 82.4 637.64 76.85 652.29 73.36 666.59 71.34 680.48 69.97 693.9 68.27 706.8 65.38 719.16 60.66 730.95 53.86 742.19 45.1 752.88 34.92 763.06 24.1 772.79 13.53 782.13 4.05 791.17 -3.73 800 -9.56 789.97 -26.81 782.15 -44.05 778.25 -61.3 779.12 -78.55 784.57 -95.8 793.41 -113.05 800.87 -138.99 782.89 -145.68 767.75 -142.11 752.61 -137.95 737.47 -134.36 722.33 -132.33 707.19 -132.42 692.05 -134.61 676.91 -138.28 661.77 -142.44 646.63 -145.91 631.48 -147.75 616.34 -147.44 601.2 -145.07 586.06 -141.3 570.92 -137.16 555.78 -133.81 540.64 -132.17 525.5 -132.7 510.36 -135.24 495.22 -139.1 480.08 -143.21 464.94 -146.43 449.8 -147.87 434.66 -147.12 419.52 -144.41 404.38 -140.47 389.23 -136.4 374.09 -133.33 358.95 -132.1 343.81 -133.06 328.67 -135.93 313.53 -139.93 298.39 -143.95 283.25 -146.87 268.11 -147.89 252.97 -146.73 237.83 -143.7 222.69 -139.64 207.55 -135.68 192.41 -132.92 177.27 -132.11 162.13 -133.49 146.98 -136.67 131.84 -140.76 116.7 -144.65 101.56 -147.24 86.42 -147.83 71.28 -146.25 56.14 -142.94 41 -138.81 25.86 -135.01 10.72 -132.59 -4.41 -132.22 -19.55 -134 -34.69 -137.44 -49.83 -141.58 -64.97 -145.29 -80.11 -147.53 -95.25 -147.69 -110.4 -145.71 -125.54 -142.16 -134.82 -126.32 -116.65 -114.24 -107.08 -108.93 -97.63 -102.97 -88.3 -96.17 -79.08 -88.44" fill="url(#uuunion-grad2)" filter="url(#uuunion-blur)"></path><path d="M778.37 384.7Q788.11 387.3 797.85 391.5 807.6 396.78 817.34 402.46 827.08 407.83 836.82 412.22 846.56 415.05 856.31 415.99 856.48 431.22 860.47 446.44 867.62 461.67 876.78 476.89 886.46 492.12 895.09 507.34 901.28 522.57 904.01 537.79 902.85 553.02 897.99 568.24 890.21 583.47 880.77 598.69 871.21 613.92 863.07 629.14 857.68 644.37 855.9 659.59 858.03 674.82 863.72 690.04 872.05 705.27 881.67 720.49 891.01 735.72 898.57 750.94 903.12 766.17 903.92 781.39 900.84 796.62 894.38 811.84 885.59 827.07 875.89 842.29 866.86 857.52 859.96 872.74 856.3 887.97 856.49 903.19 843.07 900.58 829.66 893.1 816.25 882.51 802.83 871.32 789.42 862.19 776.01 857.28 762.59 857.75 749.18 863.48 735.77 873.13 722.35 884.41 708.94 894.64 695.53 901.4 682.11 903.09 668.7 899.31 655.29 890.96 641.88 880.01 628.46 869.05 615.05 860.69 601.64 856.9 588.22 858.58 574.81 865.33 561.4 875.56 547.98 886.83 534.57 896.49 521.16 902.24 507.74 902.72 494.33 897.81 480.92 888.69 467.5 877.51 454.09 866.91 440.68 859.42 427.27 856.8 413.85 859.67 400.44 867.36 387.03 878.04 373.61 889.18 360.2 898.15 346.79 902.82 333.37 902.08 319.96 896.11 306.55 886.32 293.13 875.04 279.72 864.92 266.31 858.38 252.89 856.96 239.48 860.99 226.07 869.53 212.66 880.54 199.24 891.43 185.83 899.6 172.42 903.13 159 901.18 145.59 894.22 132.18 883.88 118.76 872.62 105.35 863.11 91.94 857.6 78.52 857.39 65.11 862.54 51.7 871.82 38.28 883.04 24.87 893.54 4.74 896.93 -1.92 882.88 -1.8 872.73 -1.63 862.58 -1.41 852.43 -1.16 842.28 -0.52 827.06 0.36 822 13.18 813.5 26.07 801.18 39.02 786.23 52 770.38 64.97 755.52 77.91 743.31 90.79 734.9 103.58 730.68 116.25 730.2 128.78 732.32 141.15 735.38 153.34 737.54 165.36 737.18 177.21 733.17 188.89 725.11 200.43 713.38 211.84 699.08 223.16 683.82 234.43 669.36 245.69 657.3 256.97 648.74 268.34 644.11 279.83 643.05 291.49 644.51 303.36 646.98 315.48 648.73 327.87 648.21 340.56 644.33 353.56 636.65 366.88 625.49 380.49 611.85 394.4 597.18 408.56 583.15 422.93 571.26 437.48 562.59 452.13 557.59 466.83 555.97 481.51 556.79 496.11 558.66 510.54 559.97 524.75 559.26 538.67 555.47 552.24 548.14 565.41 537.53 578.15 524.52 590.44 510.46 602.25 496.87 613.59 485.19 624.48 476.46 634.96 471.12 645.05 468.96 654.84 469.16 664.38 470.42 673.75 471.28 683.05 470.34 692.37 466.6 701.81 459.59 711.46 449.5 721.41 437.11 731.75 423.65 742.56 410.53 753.9 399.1 772.1 387.51 778.37 384.7" fill="url(#uuunion-grad3)" filter="url(#uuunion-blur2)"></path></svg>